<svg t="1635738616169" class="icon" viewBox="0 0 1024 1024" version="1.1" xmlns="http://www.w3.org/2000/svg" p-id="4255" width="32" height="32">
  <path d="M346.112 806.912q19.456 0 36.864 7.168t30.208 19.968 20.48 30.208 7.68 36.864-7.68 36.864-20.48 30.208-30.208 20.48-36.864 7.68q-20.48 0-37.888-7.68t-30.208-20.48-20.48-30.208-7.68-36.864 7.68-36.864 20.48-30.208 30.208-19.968 37.888-7.168zM772.096 808.96q19.456 0 37.376 7.168t30.72 19.968 20.48 30.208 7.68 36.864-7.68 36.864-20.48 30.208-30.72 20.48-37.376 7.68-36.864-7.68-30.208-20.48-20.48-30.208-7.68-36.864 7.68-36.864 20.48-30.208 30.208-19.968 36.864-7.168zM944.128 227.328q28.672 0 44.544 7.68t22.528 18.944 6.144 24.064-3.584 22.016-13.312 37.888-22.016 62.976-23.552 68.096-18.944 53.248q-13.312 40.96-33.28 56.832t-49.664 15.872l-35.84 0-65.536 0-86.016 0-96.256 0-253.952 0 14.336 92.16 517.12 0q49.152 0 49.152 41.984 0 20.48-9.728 35.328t-38.4 14.848l-49.152 0-94.208 0-118.784 0-119.808 0-99.328 0-55.296 0q-20.48 0-34.304-9.216t-23.04-24.064-14.848-32.256-8.704-32.768q-1.024-6.144-5.632-29.696t-11.264-58.88-14.848-78.848-16.384-87.552q-19.456-103.424-44.032-230.4l-76.8 0q-15.36 0-25.6-7.68t-16.896-18.432-9.216-23.04-2.56-22.528q0-20.48 13.824-33.792t37.376-13.312l103.424 0q20.48 0 32.768 6.144t19.456 15.36 10.24 18.944 5.12 16.896q1.024 6.144 1.536 11.264t2.56 14.336 4.096 19.456 4.608 18.944q1.024 2.048 3.584 7.168t5.632 13.312 6.144 16.896 5.632 16.896q25.6 49.152 43.52 83.456t34.816 64.512 29.696 50.688 26.112 41.472q94.208-21.504 168.448-21.504 10.24 0 21.504 2.048 5.12-30.72 10.752-60.928t10.752-55.808 11.264-48.128 11.776-36.864q3.072-9.216 7.168-25.088t4.096-20.992q0-11.264-9.216-28.672t-9.216-28.672q0-3.072 1.024-13.312t1.024-15.36q0-20.48 13.312-33.28t43.008-12.8q20.48 0 32.256 5.632t16.384 14.848 6.144 19.968 1.536 21.504q0 16.384-8.704 41.472t-17.408 48.64-16.384 48.128-6.656 39.936q0 10.24 3.072 19.968t9.728 16.896 16.896 12.288 24.064 4.608q24.576 0 44.032-6.144t35.84-17.92 27.648-30.208 19.456-42.496q3.072-10.24 6.144-23.04t6.144-24.576 6.656-19.968 7.68-8.704q6.144-1.024 15.36-1.024t16.384 1.536 10.24 8.704 3.072 22.016q0 18.432-2.048 35.84t-5.12 33.792-8.192 30.72-10.24 27.648q14.336 17.408 22.016 42.496t7.68 50.688q0 44.032-16.896 79.872-8.192 16.384-17.92 30.72t-22.528 28.16-28.16 25.088-34.816 21.504q97.28 114.688 135.168 252.928 37.888-29.696 60.928-72.704t36.864-88.576 19.968-96.768 7.168-94.72 0-84.992-0.512-66.56zM251.904 440.32l-14.336-92.16 470.016 0 14.336 92.16z" p-id="4256" fill="#999999"></path>
</svg> 