<svg t="1635738554731" class="icon" viewBox="0 0 1024 1024" version="1.1" xmlns="http://www.w3.org/2000/svg" p-id="3405" width="32" height="32">
  <path d="M320 512 192 512c-70.4 0-128-57.6-128-128L64 192c0-70.4 57.6-128 128-128l128 0c70.4 0 128 57.6 128 128l0 192C448 454.4 390.4 512 320 512zM320 128 192 128 192 384l128 0L320 128zM320 960 192 960c-70.4 0-128-57.6-128-128l0-192c0-70.4 57.6-128 128-128l128 0c70.4 0 128 57.6 128 128l0 192C448 902.4 390.4 960 320 960zM320 576 192 576l0 256 128 0L320 576zM832 512l-128 0c-70.4 0-128-57.6-128-128L576 192c0-70.4 57.6-128 128-128l128 0c70.4 0 128 57.6 128 128l0 192C960 454.4 902.4 512 832 512zM832 128l-128 0 0 256 128 0L832 128zM832 960l-128 0c-70.4 0-128-57.6-128-128l0-192c0-70.4 57.6-128 128-128l128 0c70.4 0 128 57.6 128 128l0 192C960 902.4 902.4 960 832 960zM832 576l-128 0 0 256 128 0L832 576z" p-id="3406" fill="#999999"></path>
</svg> 