<svg t="1635738689962" class="icon" viewBox="0 0 1024 1024" version="1.1" xmlns="http://www.w3.org/2000/svg" p-id="5106" width="32" height="32">
  <path d="M512 62C263.78125 62 62 263.78125 62 512s201.78125 450 450 450 450-201.78125 450-450S760.21875 62 512 62zM314.84375 823.359375c0-108.984375 88.59375-197.15625 197.15625-197.15625s197.15625 88.59375 197.15625 197.15625C655.5 856.0625 585.9375 879.5 512 879.5S368.5 856.0625 314.84375 823.359375zM737.0625 777.375c-14.0625-79.875-73.125-143.4375-149.625-165.9375C643.0625 579.875 680.5 522.75 680.5 456c0-93.09375-75.40625-168.5-168.5-168.5S343.5 362.90625 343.5 456c0 66.75 37.4375 123.875 93.5625 155.4375-76.5 22.5-135.5625 86.0625-149.625 165.9375C216.25 716.625 171.5 619.5 171.5 512c0-188.25 152.25-340.5 340.5-340.5s340.5 152.25 340.5 340.5C852.5 619.5 807.75 716.625 737.0625 777.375z" p-id="5107" fill="#999999"></path>
</svg> 